<svg xmlns="http://www.w3.org/2000/svg" version="1.1" xmlns:xlink="http://www.w3.org/1999/xlink" xmlns:svgjs="http://svgjs.dev/svgjs" width="1800" height="1100" preserveAspectRatio="none" viewBox="0 0 1800 1100"><g mask="url(&quot;#SvgjsMask1211&quot;)" fill="none"><rect width="1800" height="1100" x="0" y="0" fill="url(&quot;#SvgjsLinearGradient1212&quot;)"></rect><circle r="17.335" cx="414.42499999999995" cy="448.265" filter="url(#SvgjsFilter1213)" fill="rgba(108, 117, 210, 1)"></circle><circle r="11.105" cx="1166.895" cy="283.875" filter="url(#SvgjsFilter1213)" fill="rgba(51, 121, 194, 0.58)"></circle><circle r="14.215" cx="487.445" cy="699.4150000000001" filter="url(#SvgjsFilter1213)" fill="rgba(51, 121, 194, 0.58)"></circle><circle r="16.64" cx="875.46" cy="19.94" filter="url(#SvgjsFilter1213)" fill="rgba(108, 117, 210, 1)"></circle><circle r="12.3" cx="1503.21" cy="635.12" filter="url(#SvgjsFilter1213)" fill="rgba(51, 121, 194, 0.58)"></circle><circle r="11.35" cx="413.05" cy="997.4300000000001" filter="url(#SvgjsFilter1213)" fill="rgba(108, 117, 210, 1)"></circle><circle r="10.45" cx="774.0600000000001" cy="1007.08" filter="url(#SvgjsFilter1213)" fill="rgba(51, 121, 194, 0.58)"></circle><circle r="15.26" cx="441.74" cy="892.77" filter="url(#SvgjsFilter1213)" fill="rgba(51, 121, 194, 0.58)"></circle><circle r="13.745" cx="200.925" cy="624.035" filter="url(#SvgjsFilter1213)" fill="rgba(108, 117, 210, 1)"></circle><circle r="12.47" cx="632.1" cy="132.46" filter="url(#SvgjsFilter1213)" fill="rgba(108, 117, 210, 1)"></circle><circle r="15.465" cx="610.765" cy="786.895" filter="url(#SvgjsFilter1213)" fill="rgba(51, 121, 194, 0.58)"></circle><circle r="15.655" cx="240.775" cy="1052.715" filter="url(#SvgjsFilter1213)" fill="rgba(51, 121, 194, 0.58)"></circle><circle r="11.63" cx="435.65999999999997" cy="445.42" filter="url(#SvgjsFilter1213)" fill="rgba(51, 121, 194, 0.58)"></circle><circle r="17.425" cx="1738.965" cy="174.01500000000001" filter="url(#SvgjsFilter1213)" fill="rgba(51, 121, 194, 0.58)"></circle><circle r="13.77" cx="1118.9" cy="756.61" filter="url(#SvgjsFilter1213)" fill="rgba(51, 121, 194, 0.58)"></circle><circle r="15.645" cx="313.585" cy="16.465" filter="url(#SvgjsFilter1213)" fill="rgba(108, 117, 210, 1)"></circle><circle r="17.215" cx="1357.635" cy="1029.445" filter="url(#SvgjsFilter1213)" fill="rgba(108, 117, 210, 1)"></circle><circle r="16.55" cx="277.87" cy="766.12" filter="url(#SvgjsFilter1213)" fill="rgba(108, 117, 210, 1)"></circle><circle r="16.29" cx="105.16999999999999" cy="821.89" filter="url(#SvgjsFilter1213)" fill="rgba(108, 117, 210, 1)"></circle><circle r="12.845" cx="1618.025" cy="530.085" filter="url(#SvgjsFilter1213)" fill="rgba(51, 121, 194, 0.58)"></circle><path d="M642.5 970.3L583.7 995.3 562.3 986.1 582.1 977.7C584.5 977.4 585 974.9 584.6 972.5 583.6 971 581 969.8 579.6 970.8L552 981.8 530.7 973.4 549 959.6 578.6 963.7C578.6 963.7 579.4 963.6 579.4 963.6 581 963.3 582.3 961.5 582.9 959.8 582.6 957.5 581.6 956 579.1 955.5L557.7 952.8 576 939 639.2 946.5C639.2 946.5 640.1 947.2 640.1 947.2 641.7 947 643.1 945.2 643.6 943.5 644.1 941 642.2 938.8 639.8 939.1L584.8 932.1 606.6 914.6 631.2 917.7C631.2 917.7 631.2 917.7 632 917.6 633.6 917.4 635.1 916.4 635.7 914.7 635.4 912.3 634.2 910 631.7 909.6L615.4 907.8 631.4 895.1C633.7 894 633.3 891.6 632.3 890.1 631.2 887.8 628.7 887.4 626.6 889.3L610.4 901.2 613.1 885.5C612.8 883.1 611.7 880.8 609.3 881.1 606.8 880.7 605.3 881.7 604.9 884.2L601.8 908.8 579.8 925.5 586.7 869.7C587.3 868 585.4 865.8 582.9 865.4 581.3 865.6 579.1 866.7 578.6 869.2L571.1 932.4 552.8 946.2 555.5 924.8C556 922.3 554.2 921 551.7 920.5 550 919.9 547.8 921.8 547.3 923.5L544 953 525.8 967.6 522.7 944.7 540.5 921.2C541.9 919.4 541.5 917 539.7 915.7 538.7 914.2 535.5 914.6 534.2 916.4L521.2 933.6 518 910.6 557.2 860C558.5 858.2 558.2 855.8 556.4 854.5 554.6 853.1 552.2 853.4 550.8 855.2L516.5 899.5 512.8 872.5 527.9 852.7C529.3 850.9 528.9 848.5 527.1 847.2 525.3 845.8 523 846.1 521.6 847.9L511.2 860.6 508.5 840.8C508.2 838.4 506.4 837.1 504 837.4 501.6 837.7 500.3 839.5 500.6 841.9L503.3 861.7 490.7 852.1C488.9 850.8 486.5 851.1 485.1 852.9S484.1 857.1 485.9 858.4L504.8 872.8 508.6 900.6 464.4 867C462.6 865.7 460.3 866 458.9 867.8 457.5 869.6 457.9 872 459.7 873.3L510.1 911.7 513.3 934.6 496.1 921.6C494.3 920.3 492 920.6 490.6 922.4 489.2 924.2 489.5 926.6 491.3 927.9L514.8 945.7 517.8 967.9 497.3 959.4 485.4 932C484.4 930.5 481.8 929.2 480.4 930.3 478.1 931.4 477.5 933.1 477.8 935.4L486.2 955.3 465.7 946.8 440.7 888C439.6 885.8 437.9 885.2 435.5 885.5 433.2 886.6 432.7 889.1 433 890.7L454.6 942.7 428.9 931.6 419.4 909.5C419.1 907.1 416.6 906.7 414.2 907 412.7 908 411.5 910.6 412.6 912.9L418.6 927.4 399.9 920.3C398.1 918.9 395.8 920 394.5 922.6 394 924.3 395.1 926.6 396.8 927.1L415.6 935.1 400.3 941.2C398 942.3 397.6 944.8 398.6 946.3 398.9 948.6 400.6 949.2 402.2 949 403 948.9 403 948.9 403.8 948.8L425.9 939.3 451.6 950.3 400.5 971.9C398.1 972.2 397.6 974.7 397.9 977 398.9 978.5 400.6 979.1 402.2 978.9 403 978.8 403 978.8 403 978.8L462.7 954.5 483.2 963 463.4 971.3C461.1 972.4 460.5 974.1 460.8 976.5 461.8 978 463.6 979.4 465.2 979.1 466 979 466 979 466.8 978.9L494.3 967.1 514.8 975.6 497.3 989.3 467.8 986.1C465.3 985.6 463.1 987.5 462.6 989.2 462.9 991.6 464 993.8 466.4 993.5L487.8 996.3 470.4 1010.7 406.3 1002.5C404.6 1002 402.4 1003.9 401.8 1005.6 402.2 1008 403.3 1010.2 405.8 1010.7L460.8 1017.7 438.9 1034.4 415 1031.2C412.5 1030.8 410.4 1032.7 410.7 1035 410.1 1036.7 411.2 1039 413.7 1039.5L430.1 1041.3 414.1 1054C412.6 1055 412.1 1057.5 413.3 1059.7 414.2 1060.4 415.9 1061 417.4 1060.8 417.4 1060.8 418.2 1060.7 419 1060.6L435.1 1047.9 433.3 1064.3C432.7 1066 434.6 1068.1 436.3 1068.7 437.1 1068.6 437.1 1068.6 437.1 1068.6 439.5 1068.3 440.8 1066.5 440.6 1064.9L443.8 1041 465.6 1023.5 458.7 1079.4C459.1 1081.7 460.1 1083.2 462.6 1083.7 462.6 1083.7 463.4 1083.6 463.4 1083.6 464.9 1083.3 466.4 1082.3 466.9 1079.9L475.2 1016.5 492.7 1002.8 490 1024.2C490.3 1026.6 491.4 1028.9 493.8 1028.5 493.9 1029.3 494.7 1029.2 494.7 1029.2 496.3 1029 497.6 1027.2 498.2 1025.5L501.4 996 519.7 982.2 522.8 1004.4 505 1027.8C503.6 1029.6 504.1 1032.8 505.9 1034.2 507.5 1034.7 509.9 1034.4 511.4 1033.4L524.3 1015.5 527.4 1038.5 489.1 1088.9C487.7 1090.7 488.1 1093.1 489.9 1094.5 491.7 1095.8 494.1 1095.5 495.4 1093.7L529 1049.6 532.7 1077.3 518.4 1096.2C517 1098 517.3 1100.4 519.1 1101.8S523.3 1102.8 524.7 1101L534.3 1088.4 537 1108.2C537.3 1110.6 539.1 1112 541.5 1111.6 543.9 1111.3 545.2 1109.5 544.9 1107.1L542.2 1087.3 555.6 1096.8C556.5 1097.5 557.4 1098.2 558.2 1098.1 559 1098 560.5 1096.9 561.1 1096 562.5 1094.2 562.2 1091.9 560.4 1090.5L540.7 1076.2 536.9 1048.5 581.8 1081.9C582.7 1082.6 583.6 1083.3 584.4 1083.2 585.2 1083.1 586.7 1082.1 587.4 1081.2 588.7 1079.4 588.4 1077 586.6 1075.6L535.4 1037.4 532.2 1014.4 549.5 1028.2C550.4 1028.9 551.9 1028.7 552.7 1028.6 553.5 1028.5 554.3 1028.3 555 1027.4 556.4 1025.6 555.9 1022.5 554.2 1021.9L530.7 1003.3 527.7 981.1 549 989.5 560 1017.1C561 1018.5 562.9 1019.9 564.4 1019.7 565.2 1019.6 565.2 1019.6 565.1 1018.8 567.5 1018.5 568.8 1015.9 567.6 1013.6L559.3 993.8 580.6 1002.1 604.9 1061.8C605.9 1063.3 607.6 1063.9 609.2 1063.6 610 1063.5 610 1063.5 610 1063.5 612.3 1062.4 613.6 1060.6 612.5 1058.3L590.9 1006.4 616.6 1017.4 626.1 1039.5C627.2 1041.8 628.9 1042.4 630.5 1042.2 630.5 1042.2 631.3 1042.1 631.3 1042.1 633.5 1040.9 634 1038.4 633.8 1036.9L626.9 1021.7 645.7 1029.6C646.5 1029.5 647.3 1029.4 648.1 1029.3 648.9 1029.1 650.4 1028.1 651.1 1027.2 651.5 1024.8 651.2 1022.4 648.7 1021.9L629.9 1014 645.2 1007.9C647.4 1006.7 647.9 1004.3 647.7 1002.7 646.6 1000.4 644.1 999.9 641.7 1000.3L619.6 1009.7 594 999.5 645.1 978C647.4 976.9 648.7 974.3 647.7 972.8 646.5 970.5 644.7 969.2 642.5 970.3Z" fill="rgba(108, 117, 210, 1)"></path><path d="M373.4 393.1L401.3 394.4 392.8 409C391.8 410.5 392.2 413 394 414.7 396.2 415.3 398.7 414.9 399.3 412.8L410.6 394.9 432.5 395 408.9 432.2C408.2 434.3 408.6 436.8 410.1 437.8 412.6 439.2 415.1 438.8 415.8 436.6L441.8 395.4 475.1 396.6 451.3 426.6 489.5 423.4 472.1 451.8 423.4 450.7C423 450 422.3 450.4 421.6 450.8 420.2 451.5 419.1 453 419.2 454.8 419.2 456.6 421.1 458.3 423.2 458.9L467.3 459.8 455.3 478 434.2 477.6C433.1 477.3 432.4 477.6 431.7 478 431 478.4 429.9 479.9 430 481.7 430 483.4 431.9 485.2 433.7 485.1L450.5 486.1 436.2 510.1C434.5 511.9 435.6 514.1 437.4 515.8 438.9 516.8 441.4 516.4 442.7 513.8L457.5 490.5 465.4 505.3C466.5 507.4 469.4 507.7 470.8 506.9 472.9 505.8 473.6 503.6 472.5 501.5L462.2 482.5 474.2 464.3 494.7 502.3C495.8 504.4 498 505.1 500.1 503.9 501.5 503.2 502.9 500.6 501.7 498.5L479 456.2 496.4 427.8 510.7 462.8 526.9 428.7 542.8 458.3 517.5 499.1C516.1 501.7 517.3 503.8 518.7 504.8 520.2 505.9 522.7 505.4 524.4 503.6L546.9 466.1 557.2 485.1 546.2 503.7C544.5 505.5 544.9 508 547.5 509.4 549 510.4 551.4 510 552.8 507.4L561.7 493.5 575 518.2C576.1 520.3 578.3 521 580.4 519.8S583.1 516.5 582 514.4L568.7 489.8 585.2 490C588.1 490.3 589.8 488.4 589.8 486.6 590.1 483.8 588.2 482 585.7 482.5L564.2 481.3 554 462.3 597.7 464.2C600.2 463.8 601.9 461.9 601.9 460.2 602.2 457.3 600.3 455.6 597.8 456L549.8 454.5 533.9 424.9 571.3 430.3 550 399 583.3 400.2 606 442.5C607.2 444.6 610 444.9 611.4 444.1 613.6 443 614.2 440.8 613.1 438.7L592.3 400 614.5 400.7 624.7 419.8C625.8 421.9 628 422.5 630.1 421.4 631.5 420.6 632.9 418.1 631.7 416L623.8 401.2 651.4 401.8C654.2 402.1 656 400.2 655.5 397.7 655.5 396 654.4 393.8 651.9 394.3L623.9 392.9 632.4 378.4C633.5 376.9 633 374.4 631.6 373.4 630.1 372.4 628.3 372.4 627.6 372.8 626.9 373.2 626.2 373.5 625.9 374.6L614.6 392.5 592.7 392.4 616.4 355.2C617 353.1 616.6 350.6 615.1 349.5 613.7 348.5 611.9 348.6 610.5 349.3 609.8 349.7 609.8 349.7 609.4 350.8L583.4 392 550.1 390.8 573.9 360.8 535.7 364 553.1 335.6 601.9 336.7C603.6 336.6 605.8 335.5 606 332.6 606 330.8 604.1 329.1 602 328.4L557.9 327.6 569.9 309.3 591 309.8C593.2 310.4 594.9 308.6 595.2 305.7 595.2 303.9 593.3 302.2 591.2 301.6L574.7 301.3 589 277.3C590.8 275.4 589.6 273.3 587.8 271.6 586.7 271.3 584.9 271.3 584.2 271.7 583.5 272.1 582.8 272.4 582.5 273.5L567.8 296.9 559.8 282.1C558.7 280 555.8 279.7 554.4 280.4L554.4 280.4C552.3 281.6 551.6 283.7 552.8 285.9L563 304.9 551 323.1 530.6 285.1C529.4 283 527.2 282.3 525.1 283.4S522.4 286.7 523.5 288.9L546.2 331.1 528.8 359.6 514.5 324.6 498.3 358.7 482.4 329.1 507.7 288.2C509.1 285.7 508 283.6 506.5 282.6 505 281.5 502.5 282 500.8 283.8L477.9 320.6 468.1 302.3 479 283.7C480.7 281.9 480.3 279.4 477.7 278 476.3 277 473.8 277.4 472 279.3L463.5 293.8 450.3 269.2C449.1 267.1 447 266.4 444.9 267.5S442.1 270.8 443.2 273L456.5 297.6 440 297.4C438.9 297.1 438.2 297.4 437.5 297.8 436.1 298.6 435.8 299.7 435.4 300.7 435.2 303.6 437 305.3 439.5 304.9L461 306.1 471.2 325.1 427.5 323.2C426.8 323.5 426.1 323.9 425.4 324.3 424 325.1 423.7 326.1 423.3 327.2 423.1 330.1 424.9 331.8 427.4 331.4L475.4 332.9 491.3 362.5 453.9 357.1 475.2 388.3 441.9 387.2 419.2 344.9C418.1 342.8 415.2 342.5 413.8 343.2 411.7 344.4 411 346.6 412.1 348.7L432.6 386.7 410.8 386.6 400.5 367.6C399.4 365.5 397.2 364.9 395.1 366S392.3 369.3 393.5 371.4L401.4 386.2 373.9 385.6C372.8 385.3 372.1 385.6 371.4 386 370.7 386.4 369.6 387.8 369.7 389.6 369.7 391.4 370.9 393.5 373.4 393.1ZM470.3 367.4L500.9 371.8 514 343.9 526 372.9 556.3 370.2 537.7 394.7 554.9 420 524.3 415.5 511.2 443.5 499.6 415.2 468.9 417.2 487.9 393.3 470.3 367.4Z" fill="rgba(108, 117, 210, 1)"></path><path d="M1204.9 671.8L1209.5 605.6 1254.4 567 1265.4 625.1 1227.6 679.7C1227.6 679.7 1227.3 680.5 1227.3 680.5 1226.8 682 1227.8 684 1229 685.3 1231 686.9 1233.8 686.1 1234.6 683.9L1267.5 636.1 1272.9 664.2 1258.6 685.5C1258.6 685.5 1258.4 686.3 1258.4 686.3 1257.8 687.8 1258.8 689.8 1260.1 691.1 1262.1 692.6 1264.8 691.9 1265.6 689.7L1275.7 675.4 1279.5 696.2C1279.7 698 1282.4 699.8 1284.2 699.6 1286.7 699.6 1287.8 696.6 1287.6 694.8L1283.8 674 1298.1 684.1C1300.1 685.6 1302.9 684.9 1303.7 682.7 1305.2 680.7 1304.5 677.9 1302.3 677.1L1281 662.8 1276.4 634.9 1324.2 667.8C1326.2 669.3 1329 668.6 1329.8 666.4 1331.3 664.4 1330.6 661.6 1328.3 660.8L1273.8 623 1262.8 564.9 1319.4 584.7 1348.3 644.9C1349.3 646.9 1351.6 647.7 1353.6 646.7 1355.6 645.8 1356.4 643.5 1355.4 641.5L1330 588.4 1357.1 598 1367.9 620.4C1368.9 622.4 1371.2 623.2 1373.2 622.3 1375.2 621.3 1376 619 1375.1 617L1367.7 601.7 1388.8 609.1C1390.8 610.6 1393.1 608.9 1393.9 606.6 1394.7 604.4 1393.7 602.3 1391.5 601.5L1371.9 594.7 1387.2 587.3C1389.2 586.3 1390 584.1 1389 582S1385.8 579.2 1383.7 580.2L1361.3 590.9 1334.1 581.4 1387.1 555.9C1389.2 554.9 1390 552.7 1389 550.6 1388 548.6 1385.7 547.8 1383.7 548.8L1323.5 577.7 1267.7 558.1 1312.5 519.6 1377 524.4C1379.5 524.4 1381.1 522.4 1381.9 520.2 1381.9 517.6 1379.9 516.1 1377.6 515.3L1319.8 511.1 1341.6 492.5 1367.1 494.6C1369.6 494.7 1371.2 492.7 1371.9 490.4 1372 487.9 1370 486.3 1368.5 485.8L1351 484.8 1366.9 470.9C1368.2 469.6 1369.3 466.6 1367.3 465 1365.3 463.5 1363 462.7 1361.5 464.7L1345.6 478.6 1346.6 461.2C1346.6 458.6 1344.6 457.1 1343.1 456.6 1341.3 456.8 1339.3 457.8 1338.8 459.3 1338.8 459.3 1338.5 460 1338.5 460L1336.3 485.6 1314.6 504.2 1318.7 446.3C1318.8 443.8 1316.8 442.2 1315.3 441.7 1313.5 441.9 1311.5 442.9 1310.9 444.4 1310.9 444.4 1310.7 445.2 1310.7 445.2L1306.1 511.4 1261.2 549.9 1250.2 491.8 1288 437.2C1289.6 435.2 1288.8 432.5 1286.6 431.7 1284.6 430.1 1281.8 430.8 1281 433.1L1248.1 480.9 1242.7 452.7 1257 431.5C1258.5 429.5 1257.8 426.7 1255.5 425.9 1253.5 424.3 1250.8 425 1250 427.3L1239.9 441.6 1236.1 420.8C1235.9 419 1233.2 417.2 1231.4 417.4 1229.6 417.6 1228.3 418.9 1227.8 420.4 1227.5 421.1 1227.3 421.9 1227.8 422.9L1231.5 443.7 1217.2 433.6C1215.2 432.1 1212.4 432.8 1211.6 435.1 1211.6 435.1 1211.4 435.8 1211.4 435.8 1210.8 437.3 1211.8 439.4 1213.1 440.6L1234.4 454.9 1239.7 483.1 1191.9 450.2C1189.9 448.6 1187.1 449.4 1186.3 451.6 1186.3 451.6 1186.1 452.4 1186.1 452.4 1185.5 453.9 1186.5 455.9 1187.8 457.2L1242.3 495 1253.3 553.1 1197.5 533.5 1168.5 473.4C1167.6 471.3 1165.3 470.5 1163.3 471.5 1161.2 472.5 1160.4 474.7 1161.4 476.8L1186.1 529.5 1159 520 1148.2 497.6C1147.2 495.5 1144.9 494.8 1142.9 495.7S1140.1 499 1141 501L1148.4 516.3 1128.8 509.4C1126.5 508.6 1124.5 509.6 1123.7 511.9 1122.9 514.1 1123.9 516.2 1126.1 517L1145.7 523.9 1130.4 531.2C1129.4 531.7 1128.4 532.2 1127.9 533.7S1127.8 536.2 1128.3 537.3C1129.3 539.3 1131.6 540.1 1133.6 539.1L1156 528.3 1183.2 537.8 1130.2 563.3C1129.2 563.8 1128.2 564.3 1127.6 565.8 1127.4 566.6 1127.6 568.4 1128.1 569.4 1129.1 571.4 1131.3 572.2 1133.4 571.2L1193.5 542.3 1249.4 561.9 1204.5 600.4 1138.3 595.9C1136.5 596.1 1134.5 597.1 1134 598.6 1134 598.6 1133.7 599.3 1133.7 599.3 1133.7 601.9 1135.7 603.4 1137.2 603.9L1195 608.1 1173.3 626.8 1147.7 624.6C1146 624.8 1143.9 625.8 1143.4 627.3 1143.4 627.3 1143.1 628.1 1143.1 628.1 1143.1 630.6 1145.1 632.1 1146.6 632.7L1164 633.7 1148.1 647.6C1147.9 648.4 1146.8 648.9 1146.6 649.6 1146.1 651.1 1146.3 652.9 1147.5 654.2 1149.5 655.7 1151.8 656.5 1153.3 654.5L1169.2 640.6 1168.2 658C1168.2 660.6 1170.2 662.1 1171.7 662.7 1174.2 662.7 1175.8 660.7 1176.3 659.2L1178.5 633.7 1200.3 615 1196.1 672.9C1196 675.4 1198 677 1199.5 677.5 1202.6 676 1204.9 674.3 1204.9 671.8Z" fill="rgba(108, 117, 210, 1)"></path><path d="M1648.2 975.9L1640.5 949 1657 952.4C1658.7 952.9 1660.9 951.7 1662 949.4 1661.9 947.1 1660.7 944.9 1658.5 945L1637.9 940 1631 919.3 1673.8 929.8C1676.1 929.7 1678.3 928.5 1678.8 926.8 1679.3 923.9 1678.1 921.7 1675.8 921.8L1628.4 910.3 1618.9 878.4 1655 891.3 1639.6 856.2 1672.1 863.6 1686.7 910.1C1686.2 910.7 1686.8 911.2 1687.3 911.8 1688.5 912.8 1690.2 913.4 1691.9 912.7 1693.6 912.1 1694.6 909.8 1694.6 907.5L1681.3 865.5 1702.4 871.1 1708.7 891.2C1708.8 892.4 1709.4 892.9 1709.9 893.4 1710.5 894 1712.2 894.5 1713.9 893.9 1715.6 893.3 1716.6 891 1716 889.3L1711.5 873 1738.9 878.9C1741.2 879.9 1742.8 878.2 1743.9 875.9 1744.4 874.2 1743.2 872 1740.3 871.5L1713.5 865 1725 852.8C1726.6 851 1726 848.2 1724.8 847.1 1723 845.5 1720.8 845.5 1719.1 847.3L1704.4 863.1 1683.3 857.6 1712.8 826C1714.4 824.2 1714.3 822 1712.6 820.3 1711.4 819.3 1708.6 818.8 1706.9 820.5L1674.1 855.6 1641.6 848.2 1670.2 823.5 1632.7 819.1 1655.7 794.5 1702.5 805.4C1705.3 805.9 1706.9 804.1 1707.5 802.4 1708 800.7 1706.8 798.5 1704.5 797.4L1661.7 788.1 1676.4 772.3 1697.5 776.7C1699.8 777.8 1702.1 776.5 1702.5 773.7 1703 772 1701.8 769.8 1699 769.3L1683 765.3 1702.1 744.9C1703.8 743.1 1703.7 740.8 1701.9 739.2S1697.9 737.6 1696.3 739.4L1677.2 759.8 1672.1 744.2C1671.4 741.4 1669.1 740.3 1667.5 740.9 1664.7 741.6 1663.6 743.9 1664.8 746.1L1670.6 766.8 1655.8 782.6 1643.7 740.6C1642.5 738.4 1640.2 737.3 1638.5 737.9 1635.7 738.6 1634.6 740.9 1635.8 743.1L1649.8 789.1 1626.9 813.6 1620 776.5 1597.2 806.7 1587.7 774.7 1620.4 739.7C1622.1 737.9 1621.4 735.1 1620.3 734 1618.5 732.4 1616.2 732.4 1614.6 734.2L1584.6 766.3 1578.2 745 1592.9 729.3C1594.6 727.5 1594.5 725.3 1592.7 723.6 1591.6 722.5 1588.7 722.1 1587.1 723.8L1575.6 736.1 1567.4 709.7C1566.7 706.9 1564.4 705.9 1562.2 707.1 1560.5 707.7 1558.9 709.5 1560.1 711.7L1567.8 738.6 1551.2 735.2C1549.5 734.7 1547.3 735.9 1546.8 737.6 1546.3 739.3 1546.9 741 1547.5 741.5 1548.1 742.1 1548.7 742.6 1549.8 742.6L1570.3 747.6 1577.3 768.3 1534.5 757.8C1532.2 757.9 1530 759.1 1529.5 760.8 1529 762.5 1529.6 764.2 1530.7 765.3 1531.3 765.9 1531.3 765.9 1532.5 765.8L1579.8 777.3 1589.4 809.2 1553.3 796.3 1568.6 831.4 1536.1 824 1521.5 777.5C1520.9 775.8 1519.2 774.2 1516.3 774.9 1514.7 775.5 1513.6 777.8 1513.7 780L1527 822 1505.9 816.5 1499.5 796.4C1499.4 794.1 1497.1 793 1494.3 793.7 1492.7 794.3 1491.6 796.6 1491.7 798.9L1496.7 814.6 1469.4 808.7C1467.1 807.6 1465.4 809.4 1464.4 811.7 1464.4 812.8 1465 814.5 1465.6 815 1466.2 815.6 1466.8 816.1 1467.9 816.1L1494.7 822.6 1483.3 834.8C1481.6 836.6 1482.3 839.4 1483.5 840.5L1483.5 840.5C1485.2 842.1 1487.5 842 1489.1 840.3L1503.9 824.5 1525 830 1495.5 861.6C1493.8 863.3 1493.9 865.6 1495.7 867.2S1499.7 868.8 1501.3 867L1534.1 832 1566.6 839.4 1538 864.1 1575.5 868.5 1552.6 893.1 1505.8 882.2C1503 881.7 1501.3 883.5 1500.8 885.2 1500.3 886.9 1501.5 889.1 1503.8 890.2L1546 900.1 1531.8 915.3 1510.7 910.9C1508.4 909.8 1506.2 911 1505.7 913.9 1505.2 915.6 1506.4 917.8 1508.7 918.9L1525.3 922.3 1506.1 942.7C1504.5 944.5 1504.6 946.7 1506.3 948.4S1510.3 949.9 1512 948.2L1531.1 927.7 1536.2 943.4C1536.2 944.6 1536.8 945.1 1537.4 945.6 1538.5 946.7 1539.7 946.7 1540.8 946.7 1543.6 946 1544.7 943.7 1543.4 941.5L1537.7 920.7 1552.4 905 1564.6 947C1565.2 947.5 1565.7 948.1 1566.3 948.6 1567.5 949.7 1568.6 949.7 1569.8 949.7 1572.6 949 1573.6 946.7 1572.4 944.5L1558.4 898.5 1581.4 874 1588.3 911.1 1611 880.9 1620.6 912.9 1587.8 947.9C1586.2 949.7 1586.8 952.5 1588 953.6 1589.8 955.2 1592 955.1 1593.7 953.4L1623.2 921.8 1630.1 942.5 1615.3 958.3C1613.7 960.1 1613.8 962.3 1615.5 964S1619.5 965.5 1621.2 963.8L1632.6 951.5 1640.9 977.8C1640.9 979 1641.5 979.5 1642.1 980.1 1642.7 980.6 1644.4 981.1 1646.1 980.5 1647.7 979.9 1649.4 978.1 1648.2 975.9ZM1592.7 892.3L1587.2 861.9 1556.5 858.4 1580.2 837.8 1567.9 809.9 1597.1 819.7 1615.5 795.3 1621.1 825.7 1651.7 829.2 1628.6 849.2 1640.4 877.7 1611.7 867.3 1592.7 892.3Z" fill="rgba(108, 117, 210, 1)"></path><path d="M1610.9 446.2L1614.8 421.4 1628.3 431.6C1629.7 432.8 1632.2 432.6 1634.1 431 1635 428.9 1634.9 426.4 1633.5 425.2L1616 411.5 1619.8 388.5 1655.1 416.6C1657.5 418.2 1660 418.1 1660.9 416 1662.8 414.4 1662.7 411.8 1660.3 410.2L1621.3 379.3 1624.1 358.3 1669.4 340.3 1684.3 351.6 1675.9 404C1676.2 404.7 1676.5 405.5 1676.8 406.2 1677.1 407 1678.4 408.2 1679.5 408.6 1682.3 409.2 1684.2 407.6 1684.1 405L1691.7 357.2 1709.5 371.6 1706.4 396.2C1705.6 396.5 1705.9 397.2 1706.2 397.9 1706.8 399.4 1708.1 400.6 1709.9 400.8 1711.7 400.9 1713.6 399.3 1714.5 397.2L1716.9 377.3 1739.5 395C1740.8 396.2 1743.4 396.1 1745.3 394.4 1746.2 392.3 1746 389.8 1744.7 388.6L1723.5 372.1 1739.1 365.9C1741.3 365 1741.9 362.2 1741.3 360.7 1740.4 358.5 1738.1 356.8 1735.8 357.7L1715.8 365.7 1698 351.3 1739.6 334.7C1741.8 333.8 1742.7 331.7 1741.8 329.5 1740.9 327.3 1738.8 326.4 1736.6 327.3L1690.5 345.6 1674.6 333.9 1682 285.3 1699.1 278.5 1739.2 309.9C1740.8 311.8 1744.1 311.4 1744.9 309.3 1746.9 307.7 1746 305.4 1744.4 303.5L1708 274.9 1729.6 266.3 1747.4 280.8C1748.7 282 1752 281.5 1753.2 280.2S1753.9 275.6 1752.3 273.7L1738.5 262.8 1764.5 252.4C1766.7 251.5 1767.3 248.7 1766.4 246.5 1765.8 245 1763.5 243.4 1761.2 244.3L1735.2 254.6 1737.5 236.5C1737.6 234.7 1736.7 232.5 1733.9 231.9 1732.1 231.7 1729.4 233.7 1729.3 235.4L1726.3 258.2 1704.7 266.8 1711.5 221C1711.3 218.5 1710.5 216.3 1707.6 215.7 1705.8 215.5 1703.2 217.4 1703 219.2L1695.8 270.3 1678.7 277.1 1640 246.9 1643.4 227.5 1689.5 209.1C1691.7 208.2 1692.6 206.1 1691.7 203.9 1690.9 201.7 1688.5 200 1686.3 200.9L1644.6 217.5 1647.6 194.8 1667.7 186.8C1669.9 185.9 1670.8 183.8 1669.9 181.6 1669 179.4 1667 178.5 1664.7 179.4L1649.1 185.6 1653.2 159C1653.3 157.2 1651.4 154.5 1649.6 154.4 1647.1 154.5 1644.9 155.4 1645 157.9L1640.5 185.6 1625.4 173.5C1623.3 172.6 1620.8 172.8 1619.6 174.1 1618.4 175.4 1618.2 177.2 1618.8 178.7 1618.8 178.7 1619.1 179.5 1620.2 179.9L1639.3 195.5 1636.3 218.2 1597.9 188.8C1596.2 186.9 1593.7 187 1592.1 189.4 1591.6 190.4 1591.2 191.4 1591.8 192.9 1592.1 193.7 1592.4 194.4 1592.7 195.2L1634.8 227.5 1631.8 245.9 1586.5 263.9 1570 250.7 1577.1 201.4C1577.7 198.6 1576 196.6 1573.5 196.8 1571.4 195.9 1569.5 197.5 1568.9 200.3L1562.6 245 1544 230.9 1547.3 208.9C1547.5 207.1 1545.9 205.2 1543.8 204.3 1541.3 204.5 1539 205.3 1539.2 207.9L1536.3 224.5 1516.4 209.2C1514.8 207.3 1512.6 208.1 1510.6 209.8 1510.2 210.8 1510.1 212.6 1510.6 214.1 1510.6 214.1 1510.9 214.8 1511.2 215.6L1532.5 232.1 1513.9 239.5C1512.4 240.1 1510.8 242.5 1511.6 244.7 1512.5 246.9 1515.4 247.5 1516.8 246.9L1539.9 237.7 1558.4 251.9 1513.1 269.9C1510.9 270.8 1510.3 273.6 1511.2 275.9S1514.1 279 1516.4 278.1L1566.1 258.3 1581.3 270.3 1573.9 318.9 1554.6 326.6 1514.3 294.5C1512.2 293.6 1509.7 293.7 1507.7 295.3 1507.3 296.4 1507.1 298.2 1507.7 299.6 1508 300.4 1508.3 301.1 1509.3 301.6L1545.7 330.1 1524.2 338.7 1505.6 324.6C1504.3 323.4 1501.7 323.6 1499.8 325.2 1498.9 327.3 1499.1 329.8 1500.4 331L1515.2 342.3 1491.5 351.8C1490 352.4 1488.6 355.5 1489.2 357 1490.1 359.2 1493.2 360.5 1494.7 359.9L1518.5 350.5 1515.2 368.1C1515.5 368.9 1515.8 369.6 1516.1 370.4 1516.7 371.9 1518 373 1519.1 373.5 1521.6 373.3 1523.5 371.7 1524.4 369.6L1527.4 346.9 1549 338.3 1542.2 384.1C1541.6 386.9 1543.3 388.8 1545 389 1547.9 389.6 1549.8 387.9 1550.7 385.9L1557.9 334.8 1577.2 327.1 1615.9 357.3 1613.2 376.4 1563.5 396.3C1561.2 397.2 1560.3 399.2 1561.2 401.5 1562.1 403.7 1564.2 404.6 1566.4 403.7L1611.7 385.6 1608 408.7 1585 417.8C1583.5 418.4 1582.1 421.6 1583 423.8 1583.9 426 1586.7 426.6 1588.2 426L1606.8 418.6 1602.8 445.2C1603.1 445.9 1603.1 445.9 1603.4 446.7 1603.9 448.2 1605.3 449.4 1606.3 449.8 1608.8 449.7 1610.8 448 1610.9 446.2ZM1586.1 323.5L1582.1 319.9 1582.9 315.3 1588.7 276 1589.5 271.4 1593.9 269.6 1630.3 255.1 1634.8 253.3 1638.5 256.1 1669.8 280.7 1673.5 283.5 1673.1 288.9 1666.9 327.5 1666.5 332.8 1662 334.6 1625.6 349.1 1621.1 350.9 1617.1 347.3 1586.1 323.5Z" fill="rgba(51, 121, 194, 0.58)"></path><path d="M915.3 259.9L933.7 255.9 930.3 268.1C929.8 269.3 930.6 271 932.2 271.9 933.9 272 935.7 271.2 936.1 270L941 254 958.1 250.4 948 282.7C947.5 284.8 948.3 286.5 950 286.6 951.6 287.5 953.4 286.7 953.9 284.6L964.9 248.9 980.3 245.3 1005.3 272.1 1001.4 285.5 962.4 293.9C962 294.3 961.6 294.7 961.1 295.1 960.7 295.5 960.2 296.7 960.2 297.6 960.5 299.7 962.2 300.6 963.9 299.8L999.4 292.2 994.2 308.6 976.2 313C975.8 312.6 975.3 313 974.9 313.4 974 314.2 973.5 315.5 973.9 316.8 974.3 318.1 976 319 977.6 319L992.2 315.3 985.9 335.9C985.5 337.1 986.3 338.9 987.9 339.8 989.6 339.8 991.4 339.1 991.8 337.8L997.6 318.5 1006.2 327.7C1007.4 329 1009.6 328.7 1010.4 327.9 1011.8 326.6 1012.3 324.5 1011 323.2L1000 311.4 1005.3 295 1028.1 319.6C1029.4 320.9 1031.1 321 1032.4 319.8 1033.7 318.5 1033.8 316.8 1032.5 315.5L1007.2 288.3 1011.1 274 1047.1 265.9 1056.5 276.1 1045.4 312.6C1044.5 314.3 1045.7 316.4 1047.4 316.5 1049 317.4 1050.3 316.2 1051.3 314.5L1061.4 281.3 1073.2 294.1 1068 310.4C1067.5 311.7 1068.7 313.9 1069.9 314.3S1073.4 313.6 1074.3 311.9L1078.1 299.3 1092.4 314.7C1093.7 316 1095.8 315.7 1097.1 314.5 1098 313.7 1098.5 311.6 1097.3 310.2L1083 294.9 1096.3 291.5C1097.5 291.1 1098.9 289.9 1098.5 287.8 1098.1 286.5 1096.1 285.1 1094.8 285.5L1078.1 289.6 1066.2 276.8 1100 269.2C1101.8 268.4 1103.1 267.1 1102.7 265 1102.4 263.7 1100.3 262.4 1099 262.7L1061.3 271.6 1051.9 261.5 1062.5 226.2 1077.1 223.3 1102.4 250.6C1103.6 251.9 1105.3 251.9 1106.7 250.7 1108 249.5 1108.5 247.4 1107.2 246.1L1084.4 221.5 1101.1 217.4 1112.1 229.3C1113.3 230.6 1115 230.6 1116.3 229.4 1117.7 228.2 1117.7 226.5 1116.5 225.2L1107.9 215.9 1127.6 211.6C1128.9 211.2 1130.3 209.1 1129.9 207.8 1129.1 206.1 1127.9 204.8 1126.1 205.6L1105.6 209.9 1109.9 196.1C1110 194.4 1109.2 192.6 1107.9 192.2 1106.7 191.7 1105.4 192.1 1104.5 192.9 1104.5 192.9 1104.1 193.3 1104 194.2L1098.3 211.8 1081.6 215.8 1091.8 181C1092.7 179.3 1091.9 177.6 1089.8 177.1 1089 177 1088.1 177 1087.2 177.8 1086.8 178.2 1086.4 178.7 1085.9 179.1L1074.8 217.3 1061.1 220.2 1036.2 193.4 1040.9 178.3 1077.3 169.8C1079.5 169.5 1080.4 167.8 1079.6 166.1 1079.7 164.4 1078 163.5 1075.9 163.8L1042.9 171.5 1047.7 154.7 1064 151.1C1065.3 150.7 1066.2 149 1066.3 147.4 1065.5 145.6 1064.3 144.3 1062.5 145.1L1050.1 147.6 1055.5 129.6C1056.4 127.9 1055.1 126.6 1053.5 125.7 1052.6 125.6 1051.3 126 1050.5 126.8 1050.5 126.8 1050 127.2 1049.6 127.6L1043.8 147 1033.6 136C1032.8 135.1 1030.7 134.6 1029.3 135.8 1028 137 1028.4 139.2 1029.2 140.1L1041.8 153.7 1037 170.5 1012.1 143.7C1010.8 142.4 1008.7 142.7 1007.4 143.9S1006 146.9 1007.2 148.2L1034.6 177.6 1030.3 191.5 994.3 199.5 983.7 188.1 995.2 151.1C995.3 149.4 994.5 147.7 992.8 146.8 992 146.8 990.7 147.1 989.8 148 989.4 148.4 989 148.8 988.9 149.6L978.8 182.8 967 170 971.8 153.2C972.3 152 971.5 150.3 969.8 149.4 968.1 149.3 966.4 150.1 965.9 151.3L962 164.8 949 150.7C948.2 149.8 945.6 149.7 944.7 150.6 943.4 151.8 943.3 154.3 944.1 155.2L957.2 169.3 944 171.8C943.5 172.2 943.1 172.6 942.6 173 941.8 173.8 941.3 175.1 941.3 175.9 942.1 177.6 943.7 178.5 945.4 178.6L962.1 174.5 974 187.3 940.1 195C938 195.3 937.1 197 937.5 198.3 937.8 200.4 939.5 201.3 941.2 201.4L978.9 192.6 989.5 204 978.9 239.3 964.7 242.6 937.4 213.1C936.1 211.8 934.4 211.7 933.1 213 931.8 214.2 931.7 215.9 933 217.2L957.9 244 940.8 247.6 928.1 234C927.3 233.1 924.7 233 923.4 234.3 922.1 235.5 922.5 237.6 923.3 238.5L933.5 249.5 913.8 253.9C913.4 254.3 913.4 254.3 912.9 254.7 912 255.5 911.6 256.8 911.5 257.6 912.3 259.3 914 260.2 915.3 259.9ZM994.4 209.3L995.8 205.5 999.2 204.8 1028.3 198.2 1031.8 197.5 1034.2 200.1 1054.2 221.6 1056.7 224.3 1055.7 227.6 1047 256.2 1046 259.5 1042.2 260.7 1013.5 266.8 1009.7 268 1007.2 265.3 987.2 243.8 984.7 241.2 986.1 237.4 994.4 209.3Z" fill="rgba(51, 121, 194, 0.58)"></path><path d="M1279.9 833.8L1248.8 840.8 1239.1 834.4 1249.6 832C1250.8 832.1 1251.2 830.9 1251.3 829.7 1250.9 828.9 1249.8 828 1249 828.4L1234.4 831.4 1224.7 825.3 1234.9 820.2 1249.1 824.8C1249.1 824.8 1249.5 824.8 1249.5 824.8 1250.3 824.9 1251.2 824.1 1251.6 823.3 1251.6 822.1 1251.3 821.3 1250.1 820.9L1239.8 817.6 1250.1 812.4 1280.5 821.8C1280.5 821.8 1280.9 822.2 1280.9 822.2 1281.7 822.3 1282.5 821.5 1282.9 820.7 1283.4 819.6 1282.6 818.3 1281.4 818.3L1255 809.9 1267.3 803.2 1279.2 806.9C1279.2 806.9 1279.2 806.9 1279.6 807 1280.4 807 1281.2 806.6 1281.6 805.9 1281.7 804.7 1281.3 803.4 1280.1 803L1272.2 800.6 1281.3 795.8C1282.5 795.5 1282.5 794.3 1282.2 793.5 1281.8 792.3 1280.6 791.8 1279.4 792.5L1270.4 796.9 1273.1 789.5C1273.2 788.3 1272.8 787 1271.6 787 1270.5 786.5 1269.6 786.9 1269.2 788.1L1265.5 799.9 1253.2 806.2 1261.6 779.3C1262 778.5 1261.3 777.3 1260.1 776.9 1259.3 776.8 1258.1 777.2 1257.6 778.3L1248.2 808.8 1238 813.9 1241.3 803.6C1241.7 802.5 1241 801.6 1239.8 801.2 1239 800.7 1237.8 801.5 1237.3 802.3L1233.1 816.5 1222.8 822 1223.3 810.4 1234.2 800.5C1235 799.8 1235.1 798.6 1234.3 797.7 1234 796.9 1232.4 796.8 1231.5 797.6L1223.6 804.8 1224.1 793.3 1247.9 771.9C1248.7 771.1 1248.8 769.9 1248 769.1 1247.3 768.3 1246.1 768.2 1245.2 769L1224.4 787.7 1225 774.1 1234.2 765.7C1235 764.9 1235.1 763.7 1234.3 762.9 1233.5 762 1232.3 762 1231.5 762.8L1225.2 768.1 1225.7 758.1C1225.8 756.9 1225 756.1 1223.8 756 1222.6 755.9 1221.8 756.7 1221.7 757.9L1221.3 767.9 1215.9 762.1C1215.1 761.2 1213.9 761.2 1213.1 761.9S1212.2 763.9 1213 764.7L1221 773.5 1220.4 787.5 1201.7 767C1200.9 766.2 1199.7 766.1 1198.9 766.9 1198 767.7 1198 768.9 1198.7 769.7L1220.1 793.1 1219.6 804.7 1212.3 796.7C1211.6 795.9 1210.4 795.8 1209.5 796.6 1208.7 797.4 1208.7 798.6 1209.4 799.4L1219.3 810.3 1218.8 821.4 1209.5 815.4 1206.2 800.9C1205.8 800 1204.6 799.2 1203.8 799.5 1202.6 799.9 1202.2 800.7 1202.1 801.9L1204.4 812.4 1195.1 806.4 1188.1 775.2C1187.7 774 1187 773.6 1185.8 773.5 1184.5 773.9 1184.1 775 1184.1 775.8L1190 803.3 1178.4 795.6 1175.7 783.9C1175.7 782.7 1174.6 782.2 1173.4 782.2 1172.5 782.5 1171.7 783.7 1172 784.9L1173.7 792.6 1165.1 787.4C1164.4 786.6 1163.1 786.9 1162.3 788.1 1161.9 788.8 1162.2 790.1 1163 790.5L1171.5 796.1 1163.5 797.7C1162.2 798.1 1161.8 799.3 1162.1 800.1 1162.1 801.3 1162.9 801.7 1163.7 801.7 1164.1 801.8 1164.1 801.8 1164.5 801.8L1176.2 799.1 1187.9 806.8 1160.8 812.8C1159.6 812.8 1159.1 814 1159.1 815.1 1159.4 816 1160.2 816.4 1161 816.4 1161.4 816.5 1161.4 816.5 1161.4 816.5L1192.9 809.9 1202.3 815.9 1191.8 818.2C1190.5 818.6 1190.1 819.4 1190.1 820.5 1190.4 821.4 1191.2 822.2 1192 822.2 1192.4 822.3 1192.4 822.3 1192.8 822.3L1207.3 818.9 1216.7 825 1206.8 830.1 1192.6 825.9C1191.4 825.4 1190.2 826.2 1189.8 826.9 1189.7 828.1 1190.1 829.4 1191.3 829.4L1201.5 832.7 1191.7 838.2 1160.9 828.4C1160.1 828 1158.9 828.8 1158.4 829.5 1158.4 830.7 1158.7 832 1159.9 832.4L1186.3 840.8 1174 847.1 1162.6 843.3C1161.4 842.9 1160.2 843.6 1160.1 844.8 1159.7 845.6 1160 846.8 1161.2 847.3L1169.1 849.6 1160.1 854.4C1159.3 854.8 1158.8 856 1159.2 857.2 1159.6 857.6 1160.3 858 1161.1 858.1 1161.1 858.1 1161.5 858.1 1161.9 858.1L1171 853.3 1168.6 861.2C1168.2 862 1168.9 863.2 1169.7 863.7 1170.1 863.7 1170.1 863.7 1170.1 863.7 1171.3 863.7 1172.1 863 1172.2 862.2L1175.9 850.7 1188.2 844.1 1179.8 870.9C1179.7 872.1 1180.1 873 1181.3 873.4 1181.3 873.4 1181.7 873.4 1181.7 873.4 1182.5 873.5 1183.3 873.1 1183.7 871.9L1193.5 841.5 1203.4 836.4 1200.1 846.6C1200 847.8 1200.4 849 1201.6 849.1 1201.6 849.5 1202 849.5 1202 849.5 1202.8 849.6 1203.6 848.8 1204 848L1208.3 833.8 1218.5 828.6 1218 839.8 1207.2 849.7C1206.3 850.5 1206.2 852.1 1207 852.9 1207.8 853.4 1209 853.4 1209.8 853.1L1217.8 845.4 1217.2 857 1193.9 878.4C1193 879.1 1193 880.3 1193.7 881.2 1194.5 882 1195.7 882.1 1196.5 881.3L1217 862.6 1216.4 876.6 1207.6 884.6C1206.8 885.4 1206.7 886.6 1207.5 887.4S1209.4 888.3 1210.3 887.5L1216.1 882.2 1215.7 892.2C1215.6 893.4 1216.4 894.2 1217.6 894.3 1218.8 894.3 1219.6 893.6 1219.6 892.4L1220.1 882.4 1225.8 888.2C1226.2 888.6 1226.6 889.1 1227 889.1 1227.4 889.1 1228.2 888.7 1228.6 888.4 1229.5 887.6 1229.5 886.4 1228.8 885.6L1220.4 876.8 1221 862.8 1240.1 883.3C1240.5 883.7 1240.8 884.1 1241.2 884.1 1241.6 884.1 1242.5 883.8 1242.9 883.4 1243.7 882.6 1243.8 881.4 1243 880.6L1221.2 857.2 1221.8 845.6 1229 853.9C1229.4 854.4 1230.2 854.4 1230.6 854.4 1231 854.4 1231.4 854.4 1231.8 854.1 1232.6 853.3 1232.7 851.7 1231.9 851.3L1222 840 1222.5 828.8 1232.3 834.9 1235.2 849.4C1235.6 850.2 1236.3 851.1 1237.1 851.1 1237.5 851.1 1237.5 851.1 1237.5 850.7 1238.7 850.8 1239.6 849.6 1239.2 848.4L1236.9 837.9 1246.7 843.9 1253.2 875.4C1253.6 876.3 1254.4 876.7 1255.2 876.7 1255.6 876.8 1255.6 876.8 1255.6 876.8 1256.8 876.4 1257.6 875.6 1257.3 874.4L1251.3 846.9 1263 854.7 1265.7 866.4C1266 867.6 1266.8 868.1 1267.6 868.1 1267.6 868.1 1268 868.1 1268 868.1 1269.2 867.8 1269.7 866.6 1269.7 865.8L1267.7 857.7 1276.2 863.3C1276.6 863.3 1277 863.3 1277.4 863.3 1277.8 863.3 1278.6 863 1279 862.6 1279.5 861.4 1279.6 860.2 1278.4 859.8L1269.8 854.2 1277.9 852.5C1279.1 852.2 1279.6 851 1279.6 850.2 1279.3 849 1278.1 848.5 1276.9 848.5L1265.1 851.2 1253.5 843.8 1280.6 837.8C1281.8 837.5 1282.6 836.3 1282.3 835.5 1281.9 834.3 1281.2 833.5 1279.9 833.8Z" fill="rgba(108, 117, 210, 1)"></path><path d="M1053.7 1079.2L989.2 1064.3 979.2 1049 998.2 1012.9 1016.8 1011.9 1065.2 1057.2C1066 1057.6 1066 1057.6 1066.7 1058 1068.1 1058.7 1069.9 1058.8 1071.7 1057 1072.8 1054.9 1072.8 1053.1 1071.1 1051.3L1028.6 1011.7 1057.3 1010.5 1076.2 1027.8C1076.2 1027.8 1076.9 1028.1 1076.9 1028.1 1078.4 1028.9 1080.1 1028.9 1082 1027.2 1083.4 1026.1 1083.1 1023.3 1081.4 1021.4L1069.4 1009.7 1090.6 1009.1C1092.4 1009.1 1094.2 1007.4 1094.6 1004.9S1092.2 1000.9 1089.7 1000.5L1069.3 1001.5 1080.2 989.2C1082.1 987.4 1081.8 984.6 1080 982.7 1078.6 982 1076.1 981.6 1074.3 983.3L1057.1 1002.3 1027.7 1003.1 1067.2 960.7C1069.1 958.9 1068.8 956 1067.7 954.6 1065.6 953.5 1063.1 953.1 1061.3 954.8L1016.6 1003.6 997.3 1004.3 976.1 970.6 985.1 953.6 1048.1 933.4C1050.3 932.8 1051.4 930.6 1050.7 928.5S1047.9 925.2 1045.8 925.9L990.3 943.7 1004.1 917.5 1027.8 910.1C1030 909.4 1031.1 907.3 1030.8 904.4S1028 901.2 1025.9 901.8L1009.3 907.6 1019.4 888.5C1020.5 886.3 1019.1 883.8 1017 882.7 1014.8 881.6 1012.7 882.2 1011.6 884.4L1001.5 903.5 996.5 887.3C996.2 884.4 994.1 883.3 991.5 884.7 989.4 885.3 988.2 887.5 988.9 889.6L996.3 913.4 982.5 939.6 965.8 883.8C965.1 881.6 962.3 880.1 960.1 880.8S956.8 883.6 957.5 885.7L977.3 949.5 968.4 966.5 927.9 967.8 918.2 951.8 933.1 887.4C933.5 884.9 931.8 883.1 929.7 881.9 927.2 881.5 925.3 883.3 924.2 885.4L911.6 942.1 896.4 917.8 902.2 892.8C902.7 890.3 900.9 888.5 898.8 887.4 897 887.4 894.5 888.7 894 891.2L890.1 907.3 878.7 889.5C877.7 888 875.2 887.6 873 888.3 871.2 890 870.8 892.5 871.8 894L883.2 911.8 866.1 908.2C864.4 908.2 861.8 909.5 861.8 911.3 860.7 913.4 861.7 914.9 863.8 916 863.8 916 864.5 916.4 864.5 916.4L889.5 922.3 904.7 946.6 848.1 933.9C845.6 933.5 843.4 934.2 843 936.7 842.6 939.2 843.6 940.6 845.1 941.4 845.8 941.8 845.8 941.8 845.8 941.8L911.3 956.4 921 972.3 902 1008.4 883.7 1008.7 834.2 963.7C833.2 962.3 830.3 962.6 828.9 963.6 827 965.4 827.3 968.2 829.1 970L871.6 1009.6 842.9 1010.8 823.9 993.6C822.2 991.7 819.7 991.3 818.6 993.4 816.7 995.2 817 998.1 818.1 999.5L831.1 1010.9 810 1011.5C807.8 1012.2 806 1013.9 805.6 1016.4 805.9 1017.5 807 1019 808.4 1019.7 809.1 1020.1 809.1 1020.1 810.2 1019.8L831.3 1019.1 819.9 1032.1C818.1 1033.9 818.8 1036 819.8 1037.5 820.5 1037.9 820.5 1037.9 821.2 1038.2 822.6 1039 824.4 1039 825.9 1038L843.1 1019 871.7 1017.8 832.2 1060.3C831.1 1062.4 830.7 1064.9 832.8 1066 833.2 1067.1 833.2 1067.1 833.9 1067.5 835.3 1068.2 837.4 1067.6 838.9 1066.5L883.9 1017 902.2 1016.6 924 1050.7 915.5 1067 851.7 1086.8C849.6 1087.5 848.1 1090.3 848.7 1092.5S852.2 1096.1 854.4 1095.5L909.9 1077.6 896.5 1103.1 872.3 1111.2C870.2 1111.9 869 1114 869.7 1116.2 870.4 1118.3 872.5 1119.4 874.7 1118.8L890.9 1113.7 880.8 1132.9C880.1 1134.3 880.4 1137.1 882.5 1138.3 884.6 1139.4 887.9 1138.4 888.6 1137L898.7 1117.8 903.7 1134.1C904 1135.1 904.4 1136.2 905.1 1136.6 906.5 1137.3 907.6 1137 908.7 1136.7 910.8 1136 911.9 1133.9 911.3 1131.7L904.3 1107.2 917.7 1081.7 934.4 1137.5C934.7 1138.6 935.4 1139 936.9 1139.7 937.6 1140.1 938.3 1140.5 939.4 1140.2 941.5 1139.5 943 1136.7 942.3 1134.5L923.2 1071.1 931.8 1054.8 971.6 1053.1 982.3 1068.8 967 1133.9C967 1135.7 967.7 1137.9 969.1 1138.6 969.8 1139 969.8 1139 970.2 1138.3 972.3 1139.4 974.8 1138 975.2 1135.5L987.9 1078.9 1003.8 1103.6 997.9 1128.5C997.9 1130.3 998.9 1131.7 1000.3 1132.5 1000.3 1132.5 1001.1 1132.8 1001.1 1132.8 1003.2 1134 1005.7 1132.6 1006.1 1130.1L1009.7 1113 1021.1 1130.8C1021.5 1131.8 1022.2 1132.2 1022.9 1132.6 1024.3 1133.3 1026.1 1133.4 1026.5 1132.7 1029 1131.3 1029.4 1128.8 1028.7 1126.6L1017.3 1108.8 1033.3 1112.8C1035.8 1113.2 1038.3 1111.8 1038.8 1109.3 1038.8 1107.5 1037.4 1105 1035.6 1104.9L1010.7 1099 995.5 1074.8 1052.1 1087.4C1054.6 1087.8 1056.4 1086 1057.5 1083.9 1057.6 1082.1 1056.2 1079.6 1053.7 1079.2ZM988.1 1013.1L973.6 1040.7 971.4 1044.9 966.7 1045.2 936.3 1046.3 930.9 1046.2 928.5 1042.2 912.2 1016.5 909.8 1012.5 912 1008.3 926.6 980.6 928.8 976.4 933.4 976.1 963.9 975 968.5 974.7 971.7 979.1 988 1004.8 990.4 1008.8 988.1 1013.1Z" fill="rgba(108, 117, 210, 1)"></path><path d="M829 482.5L859.1 496.3 862.5 504.8 849.6 520.6 840.3 519.2 821.1 492.1C820.8 491.9 820.8 491.9 820.5 491.6 819.9 491.1 819 490.9 817.9 491.6 817.2 492.5 817 493.4 817.7 494.5L834.5 518.1 820.4 515.8 812.8 505.5C812.8 505.5 812.5 505.2 812.5 505.2 811.9 504.7 811 504.5 809.9 505.2 809.1 505.6 809 507 809.6 508.1L814.3 515 803.9 513.2C803 513 802 513.7 801.5 514.9S802.3 517 803.5 517.5L813.6 519 807 524C805.9 524.6 805.8 526.1 806.4 527.1 807.1 527.7 808.2 528.1 809.3 527.4L819.6 519.9 834.1 522.4 810.5 539.3C809.4 539.9 809.3 541.4 809.6 542.2 810.6 542.9 811.8 543.4 812.8 542.7L839.6 523.3 849.1 524.9 856.1 543.5 850 550.9 817.1 554.5C816 554.6 815.2 555.5 815.4 556.7S816.4 558.6 817.5 558.4L846.5 555.3 837.1 566.7 824.7 568C823.6 568.1 822.8 569 822.7 570.4S823.7 572.3 824.9 572.2L833.6 571.1 826.7 579.4C826 580.3 826.4 581.7 827.3 582.5 828.2 583.2 829.4 583.1 830.1 582.2L837 573.8 837.8 582.3C837.7 583.7 838.6 584.5 840 584.1 841.1 583.9 841.9 583 841.8 581.9L840.5 569.5 849.9 558.1 852.5 587.1C852.6 588.2 853.9 589.2 855 589.1S856.9 588.1 856.8 586.9L853.4 553.7 859.5 546.3 879.5 549.7 882.6 558.5 868.9 588.6C868.4 589.7 869.1 590.8 870 591.6 871.2 592 872.3 591.3 873 590.4L884.9 563.9 889.9 577.4 884.5 589C884.1 590.2 884.8 591.2 885.7 592 886.6 592.2 887.9 591.8 888.4 590.6L891.9 583.1 895.7 593C896.1 593.8 897.3 594.2 898.4 594.1 899.5 593.5 899.9 592.3 899.6 591.5L895.7 581.6 903.8 585.1C904.6 585.3 906 584.8 906.2 584 907 583 906.6 582.2 905.7 581.5 905.7 581.5 905.4 581.2 905.4 581.2L893.7 575.8 888.7 562.4 915.2 574.3C916.4 574.7 917.5 574.6 917.9 573.4 918.4 572.2 918 571.4 917.4 570.9 917.1 570.7 917.1 570.7 917.1 570.7L886.4 557 883.3 548.2 896.2 532.4 905.2 534 924.9 561.1C925.3 561.9 926.8 562 927.6 561.7 928.6 561 928.8 559.5 928.1 558.5L911.2 534.9 925.4 537.1 933 547.5C933.6 548.5 934.8 549 935.6 548.1 936.7 547.4 936.8 546 936.4 545.1L931.2 538.3 941.6 540.1C942.7 540 943.8 539.3 944.3 538.1 944.2 537.5 943.8 536.7 943.2 536.2 942.9 536 942.9 536 942.3 536L931.9 534.2 938.8 529C939.9 528.3 939.8 527.2 939.4 526.4 939.1 526.1 939.1 526.1 938.8 525.9 938.1 525.4 937.3 525.2 936.5 525.5L926.1 533.1 912 530.8 935.6 514C936.3 513 936.8 511.8 935.9 511.1 935.8 510.5 935.8 510.5 935.5 510.3 934.9 509.8 933.8 509.9 932.9 510.2L905.9 530 896.9 528.3 889.7 509.4 895.5 502.3 928.7 499C929.8 498.9 930.8 497.7 930.7 496.5S929.4 494.4 928.2 494.5L899.3 497.7 908.4 486.5 921 485C922.2 484.9 922.9 484 922.8 482.8 922.7 481.7 921.8 480.9 920.6 481.1L912.2 481.9 919 473.5C919.5 472.9 919.7 471.5 918.8 470.7 917.8 470 916.1 470.1 915.6 470.8L908.8 479.1 908 470.7C907.9 470.1 907.8 469.5 907.5 469.3 906.9 468.8 906.3 468.8 905.8 468.9 904.7 469 903.9 469.9 904 471.1L905 483.8 895.9 494.9 893.3 465.9C893.2 465.3 892.9 465.1 892.3 464.6 892 464.3 891.7 464.1 891.1 464.1 890 464.2 889 465.5 889.1 466.6L892.1 499.5 886.3 506.7 866.6 503.5 862.9 494.8 876.9 464.4C877.1 463.5 877 462.4 876.4 461.9 876.1 461.6 876.1 461.6 875.8 461.9 874.9 461.2 873.5 461.6 873.1 462.8L861.2 489.3 855.9 475.6 861.2 464C861.4 463.1 861.1 462.3 860.4 461.8 860.4 461.8 860.1 461.5 860.1 461.5 859.2 460.8 857.8 461.2 857.4 462.4L853.9 470.4 850.1 460.5C850 460 849.7 459.7 849.4 459.5 848.8 459 847.9 458.8 847.7 459.1 846.3 459.5 845.8 460.7 846 461.8L849.8 471.7 842.3 468.1C841.1 467.7 839.8 468.1 839.3 469.3 839.1 470.2 839.5 471.5 840.4 471.7L852 477.1 857.1 490.5 830.6 478.7C829.4 478.2 828.3 478.9 827.6 479.8 827.4 480.7 827.8 482.1 829 482.5ZM854.5 521.5L864.4 509.4 865.9 507.6 868.2 507.9 883.2 510.4 885.8 511 886.6 513.2 892 527.4 892.8 529.6 891.3 531.5 881.4 543.5 879.9 545.4 877.6 545.1 862.6 542.6 860.2 542.2 859.1 539.8 853.7 525.5 853 523.4 854.5 521.5Z" fill="rgba(108, 117, 210, 1)"></path></g><defs><mask id="SvgjsMask1211"><rect width="1800" height="1100" fill="#ffffff"></rect></mask><linearGradient x1="9.72%" y1="-15.91%" x2="90.28%" y2="115.91%" gradientUnits="userSpaceOnUse" id="SvgjsLinearGradient1212"><stop stop-color="#0e2a47" offset="0"></stop><stop stop-color="rgba(218, 36, 166, 1)" offset="1"></stop></linearGradient><filter id="SvgjsFilter1213"><feGaussianBlur stdDeviation="1"></feGaussianBlur></filter></defs></svg>